<svg xmlns="http://www.w3.org/2000/svg" viewBox="0 0 2472 2472"><defs><style>.a{fill:#fff;}.b{fill:#84cf00;}</style></defs><title>logo</title><rect class="a" width="2472" height="2472"/><rect x="1628.47" y="1013.65" width="276.8" height="282.59"/><path d="M1423.82,1504.17a48.52,48.52,0,0,1,31.4,11.53l98.29,83.54V1366.33H1276.68v282.6h1.6l108.54-127.69A48.44,48.44,0,0,1,1423.82,1504.17Z" transform="translate(0 0)"/><path d="M2066.47,1673.36v378c0,62.79-45.51,113.87-101.45,113.87H513.42c-56,0-101.5-51.08-101.5-113.87V882H2066.47v294.63a48.14,48.14,0,0,1,33.13-6.74v-575c0-66.21-54.12-120.38-120.33-120.38h-133.7v103.7a112.83,112.83,0,1,1-159.86,0V474.54h-893v103.7a112.83,112.83,0,1,1-159.86,0V474.54H499.17c-66.21,0-120.38,54.17-120.38,120.38V2051.35c0,81.06,60.39,147,134.63,147H1965c74.21,0,134.58-66,134.58-147V1633.6Z" transform="translate(0 0)"/><path d="M1713.52,709.6c13.41,10.82,31.18,17,50,17.43l2.15,0c19.45,0,38.43-6.36,52.07-17.46S1839,683.75,1839,668.14V332.53c0-15.62-7.55-30.34-21.26-41.45s-32.66-17.44-52.08-17.44l-2.14,0c-18.87.4-36.64,6.58-50,17.42-13.71,11.16-21.26,25.89-21.26,41.44V668.14C1692.25,683.68,1699.8,698.4,1713.52,709.6Z" transform="translate(0 0)"/><path d="M660.63,709.6c13.41,10.82,31.18,17,50,17.43l2.14,0c19.45,0,38.43-6.36,52.08-17.46s21.26-25.85,21.26-41.46V332.53c0-15.62-7.55-30.34-21.26-41.45s-32.66-17.44-52.08-17.44l-2.14,0c-18.87.4-36.63,6.58-50,17.42-13.7,11.16-21.26,25.89-21.26,41.44V668.14C639.36,683.68,646.92,698.4,660.63,709.6Z" transform="translate(0 0)"/><rect x="1276.68" y="1013.65" width="276.83" height="282.59"/><polygon points="1628.47 1648.93 1669.7 1648.93 1905.2 1366.33 1628.47 1366.33 1628.47 1648.93"/><rect x="573.12" y="1366.33" width="276.82" height="282.59"/><rect x="573.12" y="1719.02" width="276.82" height="282.58"/><rect x="573.12" y="1013.65" width="276.82" height="282.59"/><rect x="924.9" y="1366.33" width="276.83" height="282.59"/><rect x="924.9" y="1013.65" width="276.83" height="282.59"/><rect x="924.9" y="1719.02" width="276.83" height="282.58"/><path class="b" d="M1678.88,2080.41a17.33,17.33,0,0,1-11.22-4.12l-400-340a17.65,17.65,0,0,1-2-24.84l144.69-170.22a17.69,17.69,0,0,1,24.84-2l185.12,157.35a38,38,0,0,0,53.74-4.62l404.56-485.47a17.7,17.7,0,0,1,24.82-2.26l171.62,143a17.72,17.72,0,0,1,2.26,24.82l-585.08,702.1A17.35,17.35,0,0,1,1678.88,2080.41Z" transform="translate(0 0)"/></svg>