<?xml version="1.0" encoding="utf-8"?>
<!-- Generator: Adobe Illustrator 24.0.1, SVG Export Plug-In . SVG Version: 6.00 Build 0)  -->
<svg version="1.1" id="Capa_1" xmlns="http://www.w3.org/2000/svg" xmlns:xlink="http://www.w3.org/1999/xlink" x="0px" y="0px"
	 viewBox="0 0 361.9 582.2" style="enable-background:new 0 0 361.9 582.2;" xml:space="preserve">
<style type="text/css">
	.st0{font-family:'MyriadPro-Regular';}
	.st1{font-size:48px;}
</style>
<title>logo</title>
<path d="M-82.2,285"/>
<path d="M156.4,189.6l-38.6-12l25.5,107.2l0.5,0.3l-4.9,12.6c10.6-5.5,21.7-11.6,33.3-18.5c-7.6,0.4-14.1-5.3-14.5-12.9
	c-0.4-7.6,5.3-14.1,12.9-14.5c7.6-0.4,14.1,5.3,14.5,12.9c0.1,2-0.2,3.9-0.9,5.8c-0.3,0.7-0.6,1.4-1,2c2.5-1.5,5-3.1,7.5-4.8
	L156.4,189.6z"/>
<path d="M129.3,128.3L78.9,14.1l25.4,106.8L129.3,128.3z"/>
<path d="M129,383.7l10.5-27.1c-10.8,6.8-20.9,12.6-30.1,17.5l-0.7,1.9c-2.1,5.4-7.4,9-13.2,9c-5.2,0-10.3,0.9-15.3,2.5
	c-0.8,0.3-1.7,0.6-2.5,0.9c-25.6,9.9-38.4,38.8-28.4,64.5c2.7,6.9,6.9,13.2,12.4,18.3c-1.7,14-10.8,46.4-57.8,50.3
	c0,0,38.7,11.6,97.1-37.1c27.4-2.9,47.2-27.4,44.3-54.8c-1.1-10.6-5.6-20.6-12.9-28.5C128.1,396.3,126.8,389.6,129,383.7z
	 M129.4,447.7c-7.2,18.6-28.1,27.8-46.7,20.6c-18.6-7.2-27.8-28.1-20.6-46.7c7.2-18.6,28.1-27.8,46.7-20.6
	C127.4,408.3,136.6,429.2,129.4,447.7L129.4,447.7z"/>
<path d="M293.1,475.7c19.2-19.7,18.7-51.3-1-70.4c-9.8-9.5-23.1-14.6-36.7-14.1c-5.8,0.3-11.2-3-13.6-8.4l-32.9-74.5
	c-6.1,4.6-12.1,9-17.9,13.2l30.9,70c2.5,5.8,1.5,12.5-2.5,17.4c-17.7,21.1-14.9,52.5,6.1,70.2c8.2,6.9,18.4,10.9,29.1,11.6
	c60.6,45.9,98.7,32.5,98.7,32.5C305.9,521.6,295.4,489.6,293.1,475.7z M271.9,474c-18.2,8-39.5-0.2-47.6-18.4
	c-8-18.2,0.2-39.5,18.4-47.6c18.2-8,39.5,0.2,47.6,18.4C298.4,444.7,290.1,465.9,271.9,474z"/>
<path d="M215.1,193.3l-2.6,2.7c-5.1,5.2-12.6,7.2-19.6,5l-14.7-4.6l-2,5.3l25.9,58.7l3.3-2.2l12.7-67.1
	C217,191.6,216,192.4,215.1,193.3z"/>
<path d="M197.7,149.1c9.8,3,18.7,5.8,26.8,8.3L254.4,0l-57.6,148.8L197.7,149.1z"/>
<path d="M57.7,108.7L57.7,108.7c-4,17.8,6.3,35.7,23.7,41.1l112.5,35c5.6,1.8,11.8,0.2,15.9-4l2.7-2.7c4.3-4.4,10.8-5.9,16.6-3.8
	l49.3,18.3C122.7,332.9-1.5,319.2,35.1,369.4s280.7-165.2,280.7-165.2c53.4,25.5,45.7-0.7,45.7-0.7c-12.3,8.9-37.3-11.7-37.3-11.7
	c1.6-0.5,3.8-3,5.9-5.9c4.1-5.7,2.9-13.6-2.8-17.7c-5.6-4.1-13.1-4.1-18.7,0.1l-9.1,6.8c-11.3-8.9-186.4-60.6-229.9-73.4
	c-5-1.5-10.3,1.4-11.8,6.4C57.8,108.3,57.8,108.5,57.7,108.7z M207.4,287.7l-2,1.4c-1.3,0.9-3.2,2.3-5.7,4c-2.5,1.7-5.4,3.8-8.9,6.1
	c-3.5,2.3-7.3,4.9-11.6,7.7s-8.9,5.8-13.9,8.9c-5,3.1-10.2,6.3-15.6,9.7l-8.3,5c-2.8,1.7-5.7,3.4-8.6,5.1c-5.8,3.4-11.7,6.7-17.7,10
	s-12,6.5-18,9.5c-3,1.5-6,3-9,4.4s-6,2.8-8.9,4.1l-4.4,1.9l-4.4,1.7c-1.5,0.5-2.9,1-4.3,1.6s-3,0.9-4.4,1.4
	c-5.7,1.5-11.6,2.4-17,1.2c-5.1-1-9.2-4.9-10.3-10c-0.5-2-0.7-4-0.6-6c0-1.7,0.2-3.3,0.5-5c0.4-2.3,0.9-4.6,1.7-6.8
	c0.5-1.5,0.8-2.3,0.8-2.3s-0.2,0.8-0.6,2.4c-0.5,2.2-0.8,4.5-1,6.8c-0.1,1.6-0.1,3.2,0,4.9c0.1,1.9,0.4,3.7,1,5.5
	c0.6,1.9,1.7,3.7,3.2,5.1c1.7,1.5,3.7,2.4,5.9,2.7c2.5,0.4,5,0.3,7.5-0.1l2-0.3l2-0.4l0.5-0.1l0.3,0h0.1h0.1l1-0.3l2.1-0.6
	c1.3-0.5,2.7-0.9,4-1.5s2.8-1.1,4.2-1.7l4.2-1.8l4.3-2c5.7-2.7,11.6-5.7,17.5-8.8s11.9-6.3,17.8-9.6s11.9-6.6,17.7-9.9
	c5.8-3.3,11.5-6.6,17.1-9.7l30.2-17.3l12.1-6.9l9.3-5.3l6-3.4L207.4,287.7z M309.4,183c3.5-1.2,7.3,0.8,8.4,4.3s-0.8,7.3-4.3,8.4
	c-3.5,1.1-7.3-0.7-8.4-4.2C304,188,305.9,184.2,309.4,183C309.4,183,309.4,183,309.4,183L309.4,183z M62.1,114.5
	c0,1.2,0,2.4,0.1,3.6s0.2,2.4,0.4,3.6c0.1,0.6,0.2,1.2,0.3,1.8s0.2,1.2,0.4,1.8s0.3,1.1,0.5,1.7s0.4,1.1,0.6,1.7s0.4,1.1,0.7,1.6
	c0.1,0.3,0.3,0.5,0.4,0.8s0.3,0.5,0.4,0.8c0.3,0.5,0.6,1,1,1.5s0.7,0.9,1.1,1.3c0.2,0.2,0.4,0.4,0.6,0.6c0.2,0.2,0.4,0.4,0.7,0.6
	c0.2,0.2,0.4,0.4,0.7,0.5l0.7,0.5c0.5,0.3,1,0.5,1.5,0.7c0.5,0.2,1.1,0.4,1.6,0.5H74l15.8,4.9l15.7,5l15.7,5.1l15.6,5.2
	c5.2,1.7,10.4,3.5,15.7,5.2s10.4,3.6,15.6,5.3l7.8,2.7c2.6,0.9,5.2,1.8,7.8,2.8l7.8,2.8c2.6,0.9,5.2,1.9,7.8,2.8
	c-2.6-0.8-5.3-1.5-7.9-2.3l-7.9-2.3c-2.7-0.8-5.3-1.6-7.9-2.4l-7.9-2.4c-5.3-1.6-10.5-3.3-15.8-4.9s-10.5-3.3-15.7-5l-15.7-5.1
	l-15.7-5.2L89,144.9l-15.6-5.4h0.1c-0.6-0.2-1.2-0.4-1.8-0.6c-0.6-0.3-1.2-0.6-1.7-0.9l-0.8-0.6c-0.3-0.2-0.5-0.4-0.7-0.6
	c-0.2-0.2-0.5-0.4-0.7-0.6c-0.2-0.2-0.4-0.5-0.6-0.7c-0.4-0.5-0.8-1-1.1-1.5c-0.3-0.5-0.6-1.1-0.9-1.6c-0.2-0.3-0.3-0.6-0.4-0.8
	s-0.3-0.6-0.4-0.9c-0.2-0.6-0.4-1.1-0.6-1.7s-0.3-1.2-0.5-1.8s-0.3-1.2-0.4-1.8s-0.2-1.2-0.3-1.8s-0.2-1.2-0.2-1.8
	c-0.1-1.2-0.2-2.4-0.2-3.6S62,115.7,62.1,114.5z"/>
<text transform="matrix(1 0 0 1 4.0196 574)" class="st0 st1">SNAPPYBOOKING</text>
</svg>
